<svg preserveAspectRatio="none" overflow="visible" style="display: block;" width="40.9999" height="19" viewBox="0 0 40.9999 19" fill="none" xmlns="http://www.w3.org/2000/svg">
<g id="g3340">
<path id="path4" fill-rule="evenodd" clip-rule="evenodd" d="M5.53789 7.03618C6.6354 2.98393 10.3753 0 14.8202 0C19.3062 0 23.075 3.03936 24.1333 7.14894L20.2696 7.15058L19.8243 6.13964C19.8243 6.13964 20.584 5.43841 20.7794 5.22764C21.111 4.87004 20.8995 4.65947 20.7158 4.45715C20.5321 4.25484 20.1854 3.86488 19.9546 3.63976C19.7238 3.41464 19.4535 3.21566 19.1056 3.62515C19.0187 3.72775 18.1862 4.55156 18.1862 4.55156L16.0124 3.63956L16.0079 2.2329C16.0079 1.8398 15.8124 1.79524 15.5275 1.79066C15.2425 1.78607 14.4948 1.79 14.2353 1.79066C13.9758 1.79131 13.7217 1.85618 13.7217 2.26566C13.7217 2.69545 13.7335 3.65529 13.7335 3.65529L11.5228 4.53584L10.4974 3.57666C10.1807 3.29494 9.96906 3.47799 9.80592 3.64461C9.64277 3.81122 9.1569 4.32206 9.01695 4.46082C8.87699 4.59959 8.66905 4.87031 8.94644 5.19658C9.26982 5.51618 9.91658 6.15576 9.91658 6.15576L9.48253 7.04745L5.53835 7.03658L5.53789 7.03618ZM9.48671 11.9419L9.91612 12.8853C9.1068 13.6715 9.06552 13.7392 8.99978 13.8023C8.62425 14.1626 8.82305 14.3948 8.95008 14.5176C9.10945 14.6717 9.72659 15.2731 9.86125 15.402C10.038 15.5713 10.292 15.7133 10.5681 15.4294C10.7904 15.2092 11.5383 14.4735 11.5383 14.4735L13.733 15.3855C13.733 15.3855 13.7278 16.2865 13.733 16.7288C13.7382 17.171 13.9696 17.2304 14.1684 17.2253C14.3672 17.2202 15.3777 17.2305 15.5434 17.2253C15.7091 17.22 15.9741 17.2205 16.0069 16.7291V15.3697L18.2175 14.4893L20.773 16.9585C19.1357 18.2367 17.068 19 14.8202 19C10.3563 19 6.60339 15.9903 5.52391 11.9115L9.48664 11.9419H9.48671Z" fill="#231F20"/>
<path id="path6" d="M0 7.67721H3.27105C4.17717 7.67721 4.61738 7.92014 4.61738 8.63887C4.61738 9.2664 4.38677 9.38793 4.06936 9.479V9.49407C4.56583 9.55461 4.75011 9.81773 4.75011 10.3694C4.75011 11.1744 4.26902 11.3415 3.61894 11.3415H0V7.67708V7.67721ZM1.13647 9.12973H3.14819C3.35805 9.12973 3.48085 9.05386 3.48085 8.8463C3.48085 8.6337 3.35805 8.55783 3.14819 8.55783H1.13647V9.1294V9.12973ZM1.13647 10.4608H3.17383C3.41955 10.4608 3.58336 10.4052 3.58336 10.1926C3.58336 9.94457 3.41955 9.88888 3.17383 9.88888H1.13647V10.4608ZM5.4365 7.67721H9.49068V8.52749H6.57284V9.11453H9.33715V9.87374H6.57284V10.4608H9.55722V11.3417H5.4365V7.67721ZM9.92075 7.67721H14.2514V8.58823H12.6542V11.3418H11.5178V8.58855H9.92075V7.67734V7.67721ZM14.6968 7.67721H15.8337V8.98297H18.2294V7.67721H19.3658V11.3418H18.2294V9.95479H15.8337V11.3418H14.6968V7.6774V7.67721ZM20.0826 7.67721H24.1378V8.52749H21.2199V9.11453H23.9842V9.87374H21.2199V10.4608H24.2044V11.3417H20.0826V7.67721ZM24.7726 10.142H25.9089C25.9142 10.5317 26.0731 10.5621 26.4006 10.5621H27.7931C28.0336 10.5621 28.2794 10.5367 28.2794 10.2533C28.2794 9.93448 28.1464 9.91423 26.6823 9.91423C24.9727 9.91423 24.7781 9.71179 24.7781 8.81092C24.7781 8.14788 24.8395 7.63672 26.2729 7.63672H27.86C29.1703 7.63672 29.2933 8.07699 29.2933 8.71985V8.83628H28.1566C28.1566 8.56765 28.1258 8.45627 27.6036 8.45627H26.3446C26.0886 8.45627 25.9145 8.54236 25.9145 8.73983C25.9145 9.05864 26.0528 9.06873 27.271 9.06369C29.037 9.05871 29.4465 9.16498 29.4465 10.2329C29.4465 11.22 29.1088 11.3821 27.5987 11.3821H26.2216C25.1876 11.3821 24.7731 11.1896 24.7731 10.3947V10.1416L24.7726 10.142ZM30.1886 7.67721H33.6183C34.7546 7.67721 35.154 8.04672 35.154 8.95263V10.0661C35.154 10.9722 34.7547 11.3417 33.6183 11.3417H30.1885V7.67734L30.1886 7.67721ZM31.3248 10.4001H33.3418C33.8282 10.4001 34.0176 10.2634 34.0176 9.74212V9.24615C34.0176 8.72483 33.8282 8.58823 33.3418 8.58823H31.3248V10.4001ZM37.4831 7.67721H38.9625L40.9999 11.3418H39.7354L39.3824 10.6938H37.0787L36.7461 11.3421H35.4764L37.4831 7.6776V7.67721ZM37.5036 9.90414H38.9575L38.2204 8.52743L37.5036 9.90414ZM16.8777 13.242C16.8777 13.7066 16.7251 13.8718 16.2933 13.8718H15.3294C14.8618 13.8718 14.7139 13.6642 14.7139 13.2326V12.7656C14.7139 12.3338 14.8618 12.1263 15.3296 12.1263H16.2122C16.5224 12.1263 16.8539 12.2018 16.8539 12.5957V12.6567H16.6344C16.6344 12.3383 16.5365 12.3147 15.9593 12.3147H15.3533C15.1294 12.3147 14.9478 12.3808 14.9478 12.678V13.3194C14.9478 13.6166 15.1294 13.6827 15.3533 13.6827H16.2672C16.5011 13.6827 16.6442 13.6025 16.6442 13.3667V13.1945H15.7593V13.0058H16.8781V13.2417L16.8777 13.242ZM18.1229 12.1452H18.4141L19.4395 13.8529H19.1747L18.96 13.492H17.5764L17.3617 13.8529H17.0969L18.1227 12.1452H18.1229ZM18.2685 12.3339L17.6888 13.3034H18.8482L18.2685 12.3343V12.3339ZM19.7141 12.1452H20.0793L21.0892 13.577L22.0984 12.1452H22.4634V13.8529H22.2296V12.3528H22.225L21.1728 13.8529H21.0058L19.9528 12.3528H19.948V13.8529H19.7143V12.1452H19.7141ZM22.907 12.1452H24.6032V12.3339H23.1409V12.8788H24.546V13.0675H23.1409V13.6642H24.6127V13.8529H22.907V12.1452ZM26.1228 13.3151H26.3422V13.4354C26.3422 13.6029 26.4329 13.6831 26.7239 13.6831H27.4492C27.7879 13.6831 27.8881 13.6123 27.8881 13.367C27.8881 13.1524 27.8022 13.0981 27.5112 13.0981H27.0675C26.3542 13.0981 26.1204 13.0557 26.1204 12.6028C26.1204 12.2136 26.3542 12.1264 26.8361 12.1264H27.3395C27.9189 12.1264 28.0644 12.2726 28.0644 12.5769V12.6358H27.8451C27.8405 12.3646 27.8116 12.3151 27.1985 12.3151H26.9506C26.4997 12.3151 26.3399 12.3386 26.3399 12.6194C26.3399 12.8225 26.4043 12.8906 26.7693 12.8906H27.4611C27.9167 12.8906 28.1075 13.0204 28.1075 13.3106V13.4213C28.1075 13.8413 27.759 13.8721 27.413 13.8721H26.7643C26.423 13.8721 26.1224 13.8131 26.1224 13.4403V13.3152L26.1228 13.3151ZM29.2288 12.3339H28.3557V12.1452H30.3357V12.3339H29.4626V13.8529H29.2288V12.3336V12.3339ZM30.629 12.1452H30.8629V13.4213C30.8629 13.5864 30.9201 13.6834 31.2374 13.6834H32.0485C32.3657 13.6834 32.423 13.5867 32.423 13.4216V12.1456H32.6568V13.424C32.6568 13.7706 32.4802 13.8721 32.0413 13.8721H31.2446C30.8057 13.8721 30.6292 13.7706 30.6292 13.424V12.1456L30.629 12.1452ZM33.1006 12.1452H34.4961C35.076 12.1452 35.2334 12.3245 35.2334 12.9991C35.2334 13.6265 35.0759 13.8529 34.4891 13.8529H33.1006V12.1452H33.1006ZM34.9996 12.9165C34.9996 12.4236 34.8445 12.3339 34.5582 12.3339H33.3344V13.6642H34.5201C34.8039 13.6642 34.9996 13.6028 34.9996 13.091V12.9165ZM35.6532 12.1452H35.8869V13.8529H35.6532V12.1452ZM36.3545 12.7657C36.3545 12.3339 36.5024 12.1264 36.9701 12.1264H37.9647C38.4324 12.1264 38.5803 12.3339 38.5803 12.7656V13.2326C38.5803 13.6644 38.4324 13.8721 37.9647 13.8721H36.9701C36.5024 13.8721 36.3545 13.6644 36.3545 13.233V12.766V12.7657ZM38.3464 12.6784C38.3464 12.3816 38.1652 12.3154 37.9409 12.3154H36.9939C36.7697 12.3154 36.5884 12.3816 36.5884 12.6787V13.3203C36.5884 13.6175 36.7697 13.6835 36.9939 13.6835H37.9411C38.1654 13.6835 38.3466 13.6173 38.3466 13.3203V12.6787L38.3464 12.6784ZM38.95 13.3152H39.1695V13.4357C39.1695 13.6031 39.2601 13.6834 39.5511 13.6834H40.2764C40.6151 13.6834 40.7153 13.6126 40.7153 13.3673C40.7153 13.1526 40.6294 13.0984 40.3384 13.0984H39.8947C39.1813 13.0984 38.9476 13.056 38.9476 12.6031C38.9476 12.2139 39.1813 12.1266 39.6633 12.1266H40.1666C40.7463 12.1266 40.8918 12.2729 40.8918 12.5771V12.6361H40.6724C40.6677 12.3648 40.639 12.3153 40.0259 12.3153H39.7778C39.3269 12.3153 39.1671 12.3389 39.1671 12.6196C39.1671 12.8226 39.2315 12.8909 39.5965 12.8909H40.2883C40.7439 12.8909 40.9348 13.0206 40.9348 13.3109V13.4216C40.9348 13.8415 40.5864 13.8722 40.2405 13.8722H39.5916C39.2508 13.8722 38.9502 13.8132 38.9502 13.4406V13.3155L38.95 13.3152ZM39.9853 8.02648C39.9853 7.77764 40.1881 7.57716 40.4398 7.57716C40.6903 7.57716 40.8942 7.77764 40.8942 8.02641C40.8942 8.27518 40.6903 8.47573 40.4398 8.47573C40.1881 8.47573 39.9853 8.27532 39.9853 8.02648ZM40.7905 8.02648C40.7905 7.83425 40.6318 7.67976 40.4398 7.67976C40.2442 7.67976 40.0891 7.83425 40.0891 8.02648C40.0891 8.21871 40.2442 8.3732 40.4398 8.3732C40.6318 8.3732 40.7905 8.21864 40.7905 8.02648ZM40.6664 8.27302H40.5495L40.4398 8.07359H40.3479V8.27289H40.2442V7.78688H40.4899C40.6032 7.78688 40.6807 7.8068 40.6807 7.93534C40.6807 8.02497 40.6342 8.06153 40.5471 8.06743L40.6664 8.27269V8.27302ZM40.4923 7.99569C40.5471 7.99687 40.577 7.98389 40.577 7.92257C40.577 7.86491 40.5149 7.86491 40.4672 7.86491H40.3479V7.99582H40.4923V7.99569Z" fill="#231F20"/>
</g>
</svg>
