<svg preserveAspectRatio="none" overflow="visible" style="display: block;" width="8" height="8" viewBox="0 0 8 8" fill="none" xmlns="http://www.w3.org/2000/svg">
<g id="Icon">
<path id="&#244;&#128;&#160;&#144;" d="M1.02771 1.69897C1.02771 1.53817 1.07532 1.41227 1.17053 1.32129C1.26786 1.22819 1.40011 1.18164 1.56726 1.18164H2.14172C2.17135 1.02507 2.24117 0.903402 2.3512 0.81665C2.46122 0.727783 2.60828 0.68335 2.79236 0.68335H5.21082C5.3949 0.68335 5.54195 0.727783 5.65198 0.81665C5.76412 0.905518 5.83289 1.02718 5.85828 1.18164H6.43591C6.60518 1.18164 6.73637 1.22819 6.82947 1.32129C6.92468 1.41227 6.97229 1.53817 6.97229 1.69897C6.97229 2.10946 6.90564 2.47021 6.77234 2.78125C6.64115 3.09229 6.44226 3.35571 6.17566 3.57153C5.91117 3.78735 5.58004 3.95662 5.18225 4.07935C5.08915 4.19784 4.99076 4.30363 4.88708 4.39673C4.78341 4.48983 4.67761 4.56917 4.5697 4.63477V5.91064H5.03943C5.25313 5.91064 5.41606 5.96883 5.5282 6.08521C5.64034 6.20158 5.69641 6.36133 5.69641 6.56445V7.06909C5.69641 7.14315 5.67102 7.20239 5.62024 7.24683C5.57157 7.29338 5.51233 7.31665 5.4425 7.31665H2.56067C2.49296 7.31665 2.43372 7.29338 2.38293 7.24683C2.33215 7.20239 2.30676 7.14315 2.30676 7.06909V6.56445C2.30676 6.36133 2.36178 6.20158 2.4718 6.08521C2.58394 5.96883 2.74687 5.91064 2.96057 5.91064H3.4303V4.63477C3.32662 4.56917 3.22188 4.48983 3.11609 4.39673C3.01241 4.30363 2.91402 4.19784 2.82092 4.07935C2.42102 3.95662 2.08883 3.78735 1.82434 3.57153C1.55986 3.35571 1.36096 3.09229 1.22766 2.78125C1.09436 2.47021 1.02771 2.10946 1.02771 1.69897ZM1.49426 1.75928C1.49426 2.1613 1.57149 2.50301 1.72595 2.78442C1.88253 3.06372 2.11104 3.28166 2.4115 3.43823C2.32263 3.26261 2.25175 3.0743 2.19885 2.87329C2.14807 2.67228 2.12268 2.46281 2.12268 2.24487V1.67358H1.58313C1.55774 1.67358 1.53658 1.68205 1.51965 1.69897C1.50273 1.71379 1.49426 1.73389 1.49426 1.75928ZM5.59485 3.43823C5.89319 3.28166 6.11959 3.06372 6.27405 2.78442C6.42851 2.50301 6.50574 2.1613 6.50574 1.75928C6.50574 1.73389 6.49833 1.71379 6.48352 1.69897C6.46871 1.68205 6.44861 1.67358 6.42322 1.67358H5.88049V2.24487C5.88049 2.46281 5.85404 2.67228 5.80115 2.87329C5.75037 3.0743 5.6816 3.26261 5.59485 3.43823Z" fill="white"/>
</g>
</svg>
