<svg preserveAspectRatio="none" overflow="visible" style="display: block;" width="8" height="8" viewBox="0 0 8 8" fill="none" xmlns="http://www.w3.org/2000/svg">
<g id="Icon">
<path id="&#244;&#128;&#140;&#152;" d="M0.19458 4.29834C0.19458 4.05924 0.239014 3.84131 0.327881 3.64453C0.418864 3.44775 0.546875 3.28483 0.711914 3.15576C0.876953 3.02669 1.07373 2.94312 1.30225 2.90503C1.30859 2.69344 1.36043 2.50407 1.45776 2.33691C1.55509 2.16976 1.68099 2.03117 1.83545 1.92114C1.98991 1.81112 2.15812 1.73706 2.34009 1.69897C2.52417 1.65877 2.70402 1.66089 2.87964 1.70532C3.00024 1.52759 3.14624 1.36678 3.31763 1.2229C3.49113 1.0769 3.68791 0.961589 3.90796 0.876953C4.12801 0.790202 4.3724 0.746826 4.64111 0.746826C4.95215 0.746826 5.24202 0.805013 5.51074 0.921387C5.77946 1.03564 6.01432 1.19645 6.21533 1.40381C6.41634 1.61117 6.57292 1.85661 6.68506 2.14014C6.7972 2.42367 6.85221 2.73364 6.8501 3.07007C7.14632 3.18856 7.37907 3.36841 7.54834 3.60962C7.71973 3.84871 7.80542 4.12272 7.80542 4.43164C7.80542 4.68132 7.74512 4.90454 7.62451 5.10132C7.50602 5.29598 7.33464 5.45044 7.11035 5.5647C6.88607 5.67684 6.61947 5.73291 6.31055 5.73291H1.78784C1.45776 5.73291 1.17318 5.66838 0.934082 5.53931C0.697103 5.41024 0.514079 5.23779 0.38501 5.02197C0.258057 4.80404 0.19458 4.56283 0.19458 4.29834ZM4.00635 7.25317C4.07617 7.25317 4.13647 7.22778 4.18726 7.177C4.24015 7.12834 4.2666 7.06909 4.2666 6.99927V4.11108L4.24121 3.66357L4.40625 3.84766L4.85059 4.32373C4.89714 4.37451 4.95532 4.3999 5.02515 4.3999C5.09285 4.3999 5.14893 4.37874 5.19336 4.33643C5.23779 4.29411 5.26001 4.24015 5.26001 4.17456C5.26001 4.1132 5.23568 4.05713 5.18701 4.00635L4.19678 3.0542C4.16504 3.02246 4.1333 3.00024 4.10156 2.98755C4.06982 2.97274 4.03809 2.96533 4.00635 2.96533C3.97038 2.96533 3.93652 2.97274 3.90479 2.98755C3.87516 3.00024 3.84448 3.02246 3.81274 3.0542L2.82251 4.00635C2.77384 4.05713 2.74951 4.1132 2.74951 4.17456C2.74951 4.24015 2.77067 4.29411 2.81299 4.33643C2.85742 4.37874 2.91349 4.3999 2.9812 4.3999C3.05314 4.3999 3.11239 4.37451 3.15894 4.32373L3.60327 3.84766L3.76831 3.66357L3.74292 4.11108V6.99927C3.74292 7.06909 3.76831 7.12834 3.81909 7.177C3.87199 7.22778 3.93441 7.25317 4.00635 7.25317Z" fill="white"/>
</g>
</svg>
